<?xml version="1.0" encoding="UTF-8"?>
<svg width="512" height="512" viewBox="0 0 512 512" fill="none" xmlns="http://www.w3.org/2000/svg">
  <!-- Helmet Base -->
  <path d="M256 48C141.1 48 48 141.1 48 256c0 46.5 15.3 89.3 41.1 124.1C118.5 427.5 183.3 464 256 464s137.5-36.5 166.9-83.9C448.7 345.3 464 302.5 464 256c0-114.9-93.1-208-208-208z" fill="#e60000"/>
  
  <!-- Helmet Details -->
  <path d="M256 96c-88.4 0-160 71.6-160 160 0 35.8 11.8 68.8 31.6 95.6 27.3 36.9 71.1 60.4 119.4 60.4s92.1-23.5 119.4-60.4c19.8-26.8 31.6-59.8 31.6-95.6 0-88.4-71.6-160-160-160z" fill="#000000"/>
  
  <!-- Mask -->
  <path d="M256 176c-44.2 0-80 35.8-80 80v80c0 44.2 35.8 80 80 80s80-35.8 80-80v-80c0-44.2-35.8-80-80-80z" fill="#e60000"/>
  
  <!-- Face Guard -->
  <rect x="216" y="256" width="80" height="120" rx="40" fill="#000000"/>
  
  <!-- Decorative Lines -->
  <path d="M176 256h160M256 176v240" stroke="#ffe66d" stroke-width="8"/>
  
  <!-- Top Crest -->
  <path d="M256 48c0 0-40 40-40 80s40 80 40 80 40-40 40-80-40-80-40-80z" fill="#ffe66d"/>
</svg> 